<mxfile host="app.diagrams.net" modified="2023-04-16T23:43:42.406Z" agent="Mozilla/5.0 (Windows NT 10.0; Win64; x64) AppleWebKit/537.36 (KHTML, like Gecko) Chrome/112.0.0.0 Safari/537.36" etag="frXbzUI20-plJ7jjvEa8" version="21.1.8" type="github">
  <diagram name="Página-1" id="OIUwpwaMgwmhtbwfHeuS">
    <mxGraphModel dx="2200" dy="1220" grid="1" gridSize="10" guides="1" tooltips="1" connect="1" arrows="1" fold="1" page="1" pageScale="1" pageWidth="827" pageHeight="1169" math="0" shadow="0">
      <root>
        <mxCell id="0" />
        <mxCell id="1" parent="0" />
        <mxCell id="6ZioNpx4KFucAL6pxvhm-4" value="" style="edgeStyle=orthogonalEdgeStyle;rounded=0;orthogonalLoop=1;jettySize=auto;html=1;" edge="1" parent="1" source="6ZioNpx4KFucAL6pxvhm-1">
          <mxGeometry relative="1" as="geometry">
            <mxPoint x="201.5" y="260" as="targetPoint" />
          </mxGeometry>
        </mxCell>
        <mxCell id="6ZioNpx4KFucAL6pxvhm-1" value="Início" style="strokeWidth=2;html=1;shape=mxgraph.flowchart.start_1;whiteSpace=wrap;direction=west;" vertex="1" parent="1">
          <mxGeometry x="40" y="230" width="100" height="60" as="geometry" />
        </mxCell>
        <mxCell id="6ZioNpx4KFucAL6pxvhm-12" value="" style="edgeStyle=orthogonalEdgeStyle;rounded=0;orthogonalLoop=1;jettySize=auto;html=1;" edge="1" parent="1" source="6ZioNpx4KFucAL6pxvhm-8">
          <mxGeometry relative="1" as="geometry">
            <mxPoint x="380" y="260" as="targetPoint" />
          </mxGeometry>
        </mxCell>
        <mxCell id="6ZioNpx4KFucAL6pxvhm-8" value="Menu de&lt;br&gt;seleção" style="strokeWidth=2;html=1;shape=mxgraph.flowchart.display;whiteSpace=wrap;" vertex="1" parent="1">
          <mxGeometry x="200" y="230" width="100" height="60" as="geometry" />
        </mxCell>
        <mxCell id="6ZioNpx4KFucAL6pxvhm-16" value="" style="edgeStyle=orthogonalEdgeStyle;rounded=0;orthogonalLoop=1;jettySize=auto;html=1;" edge="1" parent="1" source="6ZioNpx4KFucAL6pxvhm-14" target="6ZioNpx4KFucAL6pxvhm-15">
          <mxGeometry relative="1" as="geometry">
            <Array as="points">
              <mxPoint x="540" y="250" />
              <mxPoint x="540" y="90" />
            </Array>
          </mxGeometry>
        </mxCell>
        <mxCell id="6ZioNpx4KFucAL6pxvhm-14" value="&lt;br&gt;Selecione uma das opções" style="html=1;strokeWidth=2;shape=manualInput;whiteSpace=wrap;rounded=1;size=26;arcSize=11;" vertex="1" parent="1">
          <mxGeometry x="380" y="220" width="100" height="60" as="geometry" />
        </mxCell>
        <mxCell id="6ZioNpx4KFucAL6pxvhm-18" value="Sim" style="edgeStyle=orthogonalEdgeStyle;rounded=0;orthogonalLoop=1;jettySize=auto;html=1;" edge="1" parent="1" source="6ZioNpx4KFucAL6pxvhm-15">
          <mxGeometry relative="1" as="geometry">
            <mxPoint x="690" y="90" as="targetPoint" />
          </mxGeometry>
        </mxCell>
        <mxCell id="6ZioNpx4KFucAL6pxvhm-15" value="1 -&lt;br&gt;Cadastrar&lt;br&gt;Estoque" style="rhombus;whiteSpace=wrap;html=1;strokeWidth=2;rounded=1;arcSize=11;" vertex="1" parent="1">
          <mxGeometry x="550" y="50" width="80" height="80" as="geometry" />
        </mxCell>
        <mxCell id="6ZioNpx4KFucAL6pxvhm-26" value="" style="edgeStyle=orthogonalEdgeStyle;rounded=0;orthogonalLoop=1;jettySize=auto;html=1;" edge="1" parent="1" source="6ZioNpx4KFucAL6pxvhm-20" target="6ZioNpx4KFucAL6pxvhm-25">
          <mxGeometry relative="1" as="geometry" />
        </mxCell>
        <mxCell id="6ZioNpx4KFucAL6pxvhm-20" value="Estoque item 1" style="strokeWidth=2;html=1;shape=mxgraph.flowchart.display;whiteSpace=wrap;" vertex="1" parent="1">
          <mxGeometry x="690" y="60" width="100" height="60" as="geometry" />
        </mxCell>
        <mxCell id="6ZioNpx4KFucAL6pxvhm-55" style="edgeStyle=orthogonalEdgeStyle;rounded=0;orthogonalLoop=1;jettySize=auto;html=1;" edge="1" parent="1" source="6ZioNpx4KFucAL6pxvhm-25" target="6ZioNpx4KFucAL6pxvhm-53">
          <mxGeometry relative="1" as="geometry" />
        </mxCell>
        <mxCell id="6ZioNpx4KFucAL6pxvhm-25" value="&lt;br&gt;Quant do item 1" style="html=1;strokeWidth=2;shape=manualInput;whiteSpace=wrap;rounded=1;size=26;arcSize=11;" vertex="1" parent="1">
          <mxGeometry x="840" y="60" width="100" height="60" as="geometry" />
        </mxCell>
        <mxCell id="6ZioNpx4KFucAL6pxvhm-27" value="" style="edgeStyle=orthogonalEdgeStyle;rounded=0;orthogonalLoop=1;jettySize=auto;html=1;" edge="1" parent="1" source="6ZioNpx4KFucAL6pxvhm-28" target="6ZioNpx4KFucAL6pxvhm-29">
          <mxGeometry relative="1" as="geometry" />
        </mxCell>
        <mxCell id="6ZioNpx4KFucAL6pxvhm-28" value="Estoque item 2" style="strokeWidth=2;html=1;shape=mxgraph.flowchart.display;whiteSpace=wrap;" vertex="1" parent="1">
          <mxGeometry x="991" y="60" width="100" height="60" as="geometry" />
        </mxCell>
        <mxCell id="6ZioNpx4KFucAL6pxvhm-91" value="" style="edgeStyle=orthogonalEdgeStyle;rounded=0;orthogonalLoop=1;jettySize=auto;html=1;" edge="1" parent="1" source="6ZioNpx4KFucAL6pxvhm-29" target="6ZioNpx4KFucAL6pxvhm-64">
          <mxGeometry relative="1" as="geometry" />
        </mxCell>
        <mxCell id="6ZioNpx4KFucAL6pxvhm-29" value="&lt;br&gt;Quant do item 2" style="html=1;strokeWidth=2;shape=manualInput;whiteSpace=wrap;rounded=1;size=26;arcSize=11;" vertex="1" parent="1">
          <mxGeometry x="1141" y="60" width="100" height="60" as="geometry" />
        </mxCell>
        <mxCell id="6ZioNpx4KFucAL6pxvhm-32" value="" style="edgeStyle=orthogonalEdgeStyle;rounded=0;orthogonalLoop=1;jettySize=auto;html=1;" edge="1" parent="1" source="6ZioNpx4KFucAL6pxvhm-33" target="6ZioNpx4KFucAL6pxvhm-34">
          <mxGeometry relative="1" as="geometry" />
        </mxCell>
        <mxCell id="6ZioNpx4KFucAL6pxvhm-33" value="Estoque item 3" style="strokeWidth=2;html=1;shape=mxgraph.flowchart.display;whiteSpace=wrap;" vertex="1" parent="1">
          <mxGeometry x="1300" y="60" width="100" height="60" as="geometry" />
        </mxCell>
        <mxCell id="6ZioNpx4KFucAL6pxvhm-93" style="edgeStyle=orthogonalEdgeStyle;rounded=0;orthogonalLoop=1;jettySize=auto;html=1;entryX=0.5;entryY=0;entryDx=0;entryDy=0;" edge="1" parent="1" source="6ZioNpx4KFucAL6pxvhm-34" target="6ZioNpx4KFucAL6pxvhm-70">
          <mxGeometry relative="1" as="geometry" />
        </mxCell>
        <mxCell id="6ZioNpx4KFucAL6pxvhm-34" value="&lt;br&gt;Quant do item 3" style="html=1;strokeWidth=2;shape=manualInput;whiteSpace=wrap;rounded=1;size=26;arcSize=11;" vertex="1" parent="1">
          <mxGeometry x="1450" y="60" width="100" height="60" as="geometry" />
        </mxCell>
        <mxCell id="6ZioNpx4KFucAL6pxvhm-38" value="" style="edgeStyle=orthogonalEdgeStyle;rounded=0;orthogonalLoop=1;jettySize=auto;html=1;" edge="1" parent="1" source="6ZioNpx4KFucAL6pxvhm-39" target="6ZioNpx4KFucAL6pxvhm-40">
          <mxGeometry relative="1" as="geometry" />
        </mxCell>
        <mxCell id="6ZioNpx4KFucAL6pxvhm-39" value="Estoque item 4" style="strokeWidth=2;html=1;shape=mxgraph.flowchart.display;whiteSpace=wrap;" vertex="1" parent="1">
          <mxGeometry x="1609" y="60" width="100" height="60" as="geometry" />
        </mxCell>
        <mxCell id="6ZioNpx4KFucAL6pxvhm-94" style="edgeStyle=orthogonalEdgeStyle;rounded=0;orthogonalLoop=1;jettySize=auto;html=1;" edge="1" parent="1" source="6ZioNpx4KFucAL6pxvhm-40" target="6ZioNpx4KFucAL6pxvhm-85">
          <mxGeometry relative="1" as="geometry" />
        </mxCell>
        <mxCell id="6ZioNpx4KFucAL6pxvhm-40" value="&lt;br&gt;Quant do item 4" style="html=1;strokeWidth=2;shape=manualInput;whiteSpace=wrap;rounded=1;size=26;arcSize=11;" vertex="1" parent="1">
          <mxGeometry x="1759" y="60" width="100" height="60" as="geometry" />
        </mxCell>
        <mxCell id="6ZioNpx4KFucAL6pxvhm-42" value="" style="edgeStyle=orthogonalEdgeStyle;rounded=0;orthogonalLoop=1;jettySize=auto;html=1;" edge="1" parent="1" source="6ZioNpx4KFucAL6pxvhm-43" target="6ZioNpx4KFucAL6pxvhm-44">
          <mxGeometry relative="1" as="geometry" />
        </mxCell>
        <mxCell id="6ZioNpx4KFucAL6pxvhm-43" value="Estoque item 5" style="strokeWidth=2;html=1;shape=mxgraph.flowchart.display;whiteSpace=wrap;" vertex="1" parent="1">
          <mxGeometry x="1910" y="60" width="100" height="60" as="geometry" />
        </mxCell>
        <mxCell id="6ZioNpx4KFucAL6pxvhm-95" style="edgeStyle=orthogonalEdgeStyle;rounded=0;orthogonalLoop=1;jettySize=auto;html=1;entryX=0.5;entryY=0;entryDx=0;entryDy=0;" edge="1" parent="1" source="6ZioNpx4KFucAL6pxvhm-44" target="6ZioNpx4KFucAL6pxvhm-90">
          <mxGeometry relative="1" as="geometry" />
        </mxCell>
        <mxCell id="6ZioNpx4KFucAL6pxvhm-44" value="&lt;br&gt;Quant do item 5" style="html=1;strokeWidth=2;shape=manualInput;whiteSpace=wrap;rounded=1;size=26;arcSize=11;" vertex="1" parent="1">
          <mxGeometry x="2049" y="60" width="100" height="60" as="geometry" />
        </mxCell>
        <mxCell id="6ZioNpx4KFucAL6pxvhm-56" style="edgeStyle=orthogonalEdgeStyle;rounded=0;orthogonalLoop=1;jettySize=auto;html=1;entryX=0;entryY=0.5;entryDx=0;entryDy=0;entryPerimeter=0;" edge="1" parent="1" source="6ZioNpx4KFucAL6pxvhm-53" target="6ZioNpx4KFucAL6pxvhm-28">
          <mxGeometry relative="1" as="geometry" />
        </mxCell>
        <mxCell id="6ZioNpx4KFucAL6pxvhm-57" value="Sim" style="edgeLabel;html=1;align=center;verticalAlign=middle;resizable=0;points=[];" vertex="1" connectable="0" parent="6ZioNpx4KFucAL6pxvhm-56">
          <mxGeometry x="-0.1404" relative="1" as="geometry">
            <mxPoint x="1" as="offset" />
          </mxGeometry>
        </mxCell>
        <mxCell id="6ZioNpx4KFucAL6pxvhm-58" style="edgeStyle=orthogonalEdgeStyle;rounded=0;orthogonalLoop=1;jettySize=auto;html=1;" edge="1" parent="1" source="6ZioNpx4KFucAL6pxvhm-53" target="6ZioNpx4KFucAL6pxvhm-20">
          <mxGeometry relative="1" as="geometry" />
        </mxCell>
        <mxCell id="6ZioNpx4KFucAL6pxvhm-59" value="Não" style="edgeLabel;html=1;align=center;verticalAlign=middle;resizable=0;points=[];" vertex="1" connectable="0" parent="6ZioNpx4KFucAL6pxvhm-58">
          <mxGeometry x="-0.1263" y="-1" relative="1" as="geometry">
            <mxPoint as="offset" />
          </mxGeometry>
        </mxCell>
        <mxCell id="6ZioNpx4KFucAL6pxvhm-53" value="Quant&lt;br&gt;valida?" style="rhombus;whiteSpace=wrap;html=1;strokeWidth=2;rounded=1;arcSize=11;" vertex="1" parent="1">
          <mxGeometry x="850" y="160" width="80" height="80" as="geometry" />
        </mxCell>
        <mxCell id="6ZioNpx4KFucAL6pxvhm-60" style="edgeStyle=orthogonalEdgeStyle;rounded=0;orthogonalLoop=1;jettySize=auto;html=1;entryX=0;entryY=0.5;entryDx=0;entryDy=0;entryPerimeter=0;" edge="1" parent="1" source="6ZioNpx4KFucAL6pxvhm-64" target="6ZioNpx4KFucAL6pxvhm-33">
          <mxGeometry relative="1" as="geometry">
            <mxPoint x="1291" y="90" as="targetPoint" />
          </mxGeometry>
        </mxCell>
        <mxCell id="6ZioNpx4KFucAL6pxvhm-61" value="Sim" style="edgeLabel;html=1;align=center;verticalAlign=middle;resizable=0;points=[];" vertex="1" connectable="0" parent="6ZioNpx4KFucAL6pxvhm-60">
          <mxGeometry x="-0.1404" relative="1" as="geometry">
            <mxPoint x="1" as="offset" />
          </mxGeometry>
        </mxCell>
        <mxCell id="6ZioNpx4KFucAL6pxvhm-62" style="edgeStyle=orthogonalEdgeStyle;rounded=0;orthogonalLoop=1;jettySize=auto;html=1;" edge="1" parent="1" source="6ZioNpx4KFucAL6pxvhm-64">
          <mxGeometry relative="1" as="geometry">
            <mxPoint x="1040" y="120" as="targetPoint" />
          </mxGeometry>
        </mxCell>
        <mxCell id="6ZioNpx4KFucAL6pxvhm-63" value="Não" style="edgeLabel;html=1;align=center;verticalAlign=middle;resizable=0;points=[];" vertex="1" connectable="0" parent="6ZioNpx4KFucAL6pxvhm-62">
          <mxGeometry x="-0.1263" y="-1" relative="1" as="geometry">
            <mxPoint as="offset" />
          </mxGeometry>
        </mxCell>
        <mxCell id="6ZioNpx4KFucAL6pxvhm-64" value="Quant&lt;br&gt;valida?" style="rhombus;whiteSpace=wrap;html=1;strokeWidth=2;rounded=1;arcSize=11;" vertex="1" parent="1">
          <mxGeometry x="1151" y="160" width="80" height="80" as="geometry" />
        </mxCell>
        <mxCell id="6ZioNpx4KFucAL6pxvhm-66" style="edgeStyle=orthogonalEdgeStyle;rounded=0;orthogonalLoop=1;jettySize=auto;html=1;entryX=0;entryY=0.5;entryDx=0;entryDy=0;entryPerimeter=0;" edge="1" parent="1" source="6ZioNpx4KFucAL6pxvhm-70" target="6ZioNpx4KFucAL6pxvhm-39">
          <mxGeometry relative="1" as="geometry">
            <mxPoint x="1620" y="90" as="targetPoint" />
          </mxGeometry>
        </mxCell>
        <mxCell id="6ZioNpx4KFucAL6pxvhm-67" value="Sim" style="edgeLabel;html=1;align=center;verticalAlign=middle;resizable=0;points=[];" vertex="1" connectable="0" parent="6ZioNpx4KFucAL6pxvhm-66">
          <mxGeometry x="-0.1404" relative="1" as="geometry">
            <mxPoint x="1" as="offset" />
          </mxGeometry>
        </mxCell>
        <mxCell id="6ZioNpx4KFucAL6pxvhm-68" style="edgeStyle=orthogonalEdgeStyle;rounded=0;orthogonalLoop=1;jettySize=auto;html=1;" edge="1" parent="1" source="6ZioNpx4KFucAL6pxvhm-70">
          <mxGeometry relative="1" as="geometry">
            <mxPoint x="1360" y="120" as="targetPoint" />
          </mxGeometry>
        </mxCell>
        <mxCell id="6ZioNpx4KFucAL6pxvhm-69" value="Não" style="edgeLabel;html=1;align=center;verticalAlign=middle;resizable=0;points=[];" vertex="1" connectable="0" parent="6ZioNpx4KFucAL6pxvhm-68">
          <mxGeometry x="-0.1263" y="-1" relative="1" as="geometry">
            <mxPoint as="offset" />
          </mxGeometry>
        </mxCell>
        <mxCell id="6ZioNpx4KFucAL6pxvhm-70" value="Quant&lt;br&gt;valida?" style="rhombus;whiteSpace=wrap;html=1;strokeWidth=2;rounded=1;arcSize=11;" vertex="1" parent="1">
          <mxGeometry x="1460" y="160" width="80" height="80" as="geometry" />
        </mxCell>
        <mxCell id="6ZioNpx4KFucAL6pxvhm-81" style="edgeStyle=orthogonalEdgeStyle;rounded=0;orthogonalLoop=1;jettySize=auto;html=1;entryX=0;entryY=0.5;entryDx=0;entryDy=0;entryPerimeter=0;" edge="1" parent="1" source="6ZioNpx4KFucAL6pxvhm-85" target="6ZioNpx4KFucAL6pxvhm-43">
          <mxGeometry relative="1" as="geometry">
            <mxPoint x="1920" y="90" as="targetPoint" />
          </mxGeometry>
        </mxCell>
        <mxCell id="6ZioNpx4KFucAL6pxvhm-82" value="Sim" style="edgeLabel;html=1;align=center;verticalAlign=middle;resizable=0;points=[];" vertex="1" connectable="0" parent="6ZioNpx4KFucAL6pxvhm-81">
          <mxGeometry x="-0.1404" relative="1" as="geometry">
            <mxPoint x="1" as="offset" />
          </mxGeometry>
        </mxCell>
        <mxCell id="6ZioNpx4KFucAL6pxvhm-83" style="edgeStyle=orthogonalEdgeStyle;rounded=0;orthogonalLoop=1;jettySize=auto;html=1;" edge="1" parent="1" source="6ZioNpx4KFucAL6pxvhm-85">
          <mxGeometry relative="1" as="geometry">
            <mxPoint x="1660" y="120" as="targetPoint" />
          </mxGeometry>
        </mxCell>
        <mxCell id="6ZioNpx4KFucAL6pxvhm-84" value="Não" style="edgeLabel;html=1;align=center;verticalAlign=middle;resizable=0;points=[];" vertex="1" connectable="0" parent="6ZioNpx4KFucAL6pxvhm-83">
          <mxGeometry x="-0.1263" y="-1" relative="1" as="geometry">
            <mxPoint as="offset" />
          </mxGeometry>
        </mxCell>
        <mxCell id="6ZioNpx4KFucAL6pxvhm-85" value="Quant&lt;br&gt;valida?" style="rhombus;whiteSpace=wrap;html=1;strokeWidth=2;rounded=1;arcSize=11;" vertex="1" parent="1">
          <mxGeometry x="1769" y="160" width="80" height="80" as="geometry" />
        </mxCell>
        <mxCell id="6ZioNpx4KFucAL6pxvhm-86" style="edgeStyle=orthogonalEdgeStyle;rounded=0;orthogonalLoop=1;jettySize=auto;html=1;entryX=0.48;entryY=0.133;entryDx=0;entryDy=0;entryPerimeter=0;" edge="1" parent="1" source="6ZioNpx4KFucAL6pxvhm-90" target="6ZioNpx4KFucAL6pxvhm-14">
          <mxGeometry relative="1" as="geometry">
            <mxPoint x="2210" y="90" as="targetPoint" />
            <Array as="points">
              <mxPoint x="2190" y="200" />
              <mxPoint x="2190" y="20" />
              <mxPoint x="428" y="20" />
            </Array>
          </mxGeometry>
        </mxCell>
        <mxCell id="6ZioNpx4KFucAL6pxvhm-87" value="Sim" style="edgeLabel;html=1;align=center;verticalAlign=middle;resizable=0;points=[];" vertex="1" connectable="0" parent="6ZioNpx4KFucAL6pxvhm-86">
          <mxGeometry x="-0.1404" relative="1" as="geometry">
            <mxPoint x="1" as="offset" />
          </mxGeometry>
        </mxCell>
        <mxCell id="6ZioNpx4KFucAL6pxvhm-88" style="edgeStyle=orthogonalEdgeStyle;rounded=0;orthogonalLoop=1;jettySize=auto;html=1;" edge="1" parent="1" source="6ZioNpx4KFucAL6pxvhm-90">
          <mxGeometry relative="1" as="geometry">
            <mxPoint x="1960" y="120" as="targetPoint" />
          </mxGeometry>
        </mxCell>
        <mxCell id="6ZioNpx4KFucAL6pxvhm-89" value="Não" style="edgeLabel;html=1;align=center;verticalAlign=middle;resizable=0;points=[];" vertex="1" connectable="0" parent="6ZioNpx4KFucAL6pxvhm-88">
          <mxGeometry x="-0.1263" y="-1" relative="1" as="geometry">
            <mxPoint as="offset" />
          </mxGeometry>
        </mxCell>
        <mxCell id="6ZioNpx4KFucAL6pxvhm-90" value="Quant&lt;br&gt;valida?" style="rhombus;whiteSpace=wrap;html=1;strokeWidth=2;rounded=1;arcSize=11;" vertex="1" parent="1">
          <mxGeometry x="2059" y="160" width="80" height="80" as="geometry" />
        </mxCell>
      </root>
    </mxGraphModel>
  </diagram>
</mxfile>
